<svg width="45" height="40" viewBox="0 0 45 40" fill="none" xmlns="http://www.w3.org/2000/svg">
    <g>
        <path d="M30.5 18C31.6046 18 32.5 18.8954 32.5 20V20C32.5 21.1046 31.6046 22 30.5 22H8.5C7.39543 22 6.5 21.1046 6.5 20V20C6.5 18.8954 7.39543 18 8.5 18H30.5Z" fill="#7D7A7A"/>
        <path d="M26.1739 28.7129C25.2738 27.8886 25.2728 26.4703 26.1718 25.6448L32.319 20L26.1718 14.3552C25.2728 13.5297 25.2738 12.1114 26.1739 11.2871V11.2871C26.9695 10.5587 28.1897 10.5587 28.9852 11.2871L36.0838 17.7875C37.3825 18.9767 37.3825 21.0233 36.0838 22.2125L28.9852 28.7129C28.1897 29.4413 26.9695 29.4413 26.1739 28.7129V28.7129Z" fill="#7D7A7A"/>
    </g>
</svg>   