<svg width="150" height="200" viewBox="0 0 150 200" fill="none" xmlns="http://www.w3.org/2000/svg">
<rect width="150" height="200" rx="5" fill="#D9D9D9"/>
<path d="M33.8259 108.5V96.02C33.5379 96.228 33.1939 96.444 32.7939 96.668C32.4099 96.876 32.0099 97.076 31.5939 97.268C31.1939 97.444 30.7859 97.596 30.3699 97.724L29.4339 95.3C30.3779 94.932 31.3299 94.46 32.2899 93.884C33.2499 93.308 34.0739 92.636 34.7619 91.868H36.9699V108.5H33.8259ZM46.7728 108.86C46.1808 108.86 45.5728 108.804 44.9488 108.692C44.3248 108.596 43.7648 108.484 43.2688 108.356C42.7888 108.212 42.4288 108.092 42.1888 107.996L42.7888 105.38C43.1408 105.54 43.6448 105.716 44.3008 105.908C44.9568 106.084 45.7408 106.172 46.6528 106.172C47.4688 106.172 48.1168 106.06 48.5968 105.836C49.0928 105.596 49.4528 105.284 49.6768 104.9C49.9008 104.516 50.0128 104.108 50.0128 103.676C50.0128 102.988 49.8128 102.412 49.4128 101.948C49.0288 101.484 48.3488 101.132 47.3728 100.892C46.3968 100.636 45.0208 100.508 43.2448 100.508C43.3408 99.74 43.4208 98.988 43.4848 98.252C43.5648 97.5 43.6288 96.764 43.6768 96.044C43.7408 95.324 43.7888 94.612 43.8208 93.908C43.8528 93.204 43.8848 92.524 43.9168 91.868H52.5808V94.508H46.5568C46.5408 94.796 46.5248 95.1 46.5088 95.42C46.4928 95.74 46.4688 96.06 46.4368 96.38C46.4048 96.7 46.3728 97.004 46.3408 97.292C46.3248 97.58 46.3008 97.836 46.2688 98.06C48.6368 98.188 50.3808 98.724 51.5008 99.668C52.6208 100.612 53.1808 101.908 53.1808 103.556C53.1808 104.564 52.9488 105.468 52.4848 106.268C52.0208 107.068 51.3088 107.7 50.3488 108.164C49.4048 108.628 48.2128 108.86 46.7728 108.86ZM61.4477 108.836C60.2317 108.836 59.1837 108.5 58.3037 107.828C57.4397 107.156 56.7677 106.18 56.2877 104.9C55.8237 103.604 55.5917 102.02 55.5917 100.148C55.5917 98.292 55.8317 96.724 56.3117 95.444C56.7917 94.148 57.4637 93.164 58.3277 92.492C59.2077 91.82 60.2477 91.484 61.4477 91.484C63.2877 91.484 64.7197 92.236 65.7437 93.74C66.7837 95.228 67.3037 97.364 67.3037 100.148C67.3037 102.948 66.7837 105.1 65.7437 106.604C64.7197 108.092 63.2877 108.836 61.4477 108.836ZM61.4477 106.124C62.1357 106.124 62.6637 105.868 63.0317 105.356C63.4157 104.844 63.6877 104.14 63.8477 103.244C64.0077 102.332 64.0877 101.3 64.0877 100.148C64.0877 99.012 64.0077 97.996 63.8477 97.1C63.6877 96.204 63.4157 95.5 63.0317 94.988C62.6637 94.46 62.1357 94.196 61.4477 94.196C60.7917 94.196 60.2637 94.46 59.8637 94.988C59.4797 95.5 59.2077 96.204 59.0477 97.1C58.8877 97.996 58.8077 99.012 58.8077 100.148C58.8077 101.3 58.8877 102.332 59.0477 103.244C59.2077 104.14 59.4797 104.844 59.8637 105.356C60.2637 105.868 60.7917 106.124 61.4477 106.124ZM71.6586 106.532L69.8346 104.708L73.1946 101.372L69.8346 98.012L71.6586 96.188L74.9946 99.548L78.3546 96.188L80.1786 98.012L76.8186 101.372L80.1786 104.708L78.3546 106.532L74.9946 103.172L71.6586 106.532ZM83.1894 108.5C83.1734 108.356 83.1654 108.172 83.1654 107.948C83.1654 107.708 83.1654 107.524 83.1654 107.396C83.1654 106.372 83.3814 105.46 83.8134 104.66C84.2454 103.86 84.7814 103.124 85.4214 102.452C86.0774 101.78 86.7334 101.124 87.3894 100.484C87.9174 99.988 88.3894 99.524 88.8054 99.092C89.2374 98.644 89.5814 98.204 89.8374 97.772C90.0934 97.34 90.2214 96.876 90.2214 96.38C90.2214 95.58 89.9974 95.02 89.5494 94.7C89.1014 94.364 88.5494 94.196 87.8934 94.196C87.3014 94.196 86.7574 94.3 86.2614 94.508C85.7814 94.716 85.3734 94.956 85.0374 95.228C84.7014 95.5 84.4614 95.708 84.3174 95.852L82.7574 93.668C83.1574 93.284 83.6214 92.932 84.1494 92.612C84.6934 92.276 85.2854 92.004 85.9254 91.796C86.5814 91.588 87.2694 91.484 87.9894 91.484C89.8774 91.484 91.2534 91.908 92.1174 92.756C92.9974 93.588 93.4374 94.732 93.4374 96.188C93.4374 96.988 93.2374 97.756 92.8374 98.492C92.4374 99.212 91.9254 99.9 91.3014 100.556C90.6934 101.196 90.0694 101.82 89.4294 102.428C89.0774 102.764 88.6934 103.148 88.2774 103.58C87.8614 104.012 87.4934 104.436 87.1734 104.852C86.8694 105.252 86.6934 105.588 86.6454 105.86H93.9414V108.5H83.1894ZM102.088 108.836C100.872 108.836 99.8243 108.5 98.9443 107.828C98.0803 107.156 97.4083 106.18 96.9283 104.9C96.4643 103.604 96.2323 102.02 96.2323 100.148C96.2323 98.292 96.4723 96.724 96.9523 95.444C97.4323 94.148 98.1043 93.164 98.9683 92.492C99.8483 91.82 100.888 91.484 102.088 91.484C103.928 91.484 105.36 92.236 106.384 93.74C107.424 95.228 107.944 97.364 107.944 100.148C107.944 102.948 107.424 105.1 106.384 106.604C105.36 108.092 103.928 108.836 102.088 108.836ZM102.088 106.124C102.776 106.124 103.304 105.868 103.672 105.356C104.056 104.844 104.328 104.14 104.488 103.244C104.648 102.332 104.728 101.3 104.728 100.148C104.728 99.012 104.648 97.996 104.488 97.1C104.328 96.204 104.056 95.5 103.672 94.988C103.304 94.46 102.776 94.196 102.088 94.196C101.432 94.196 100.904 94.46 100.504 94.988C100.12 95.5 99.8483 96.204 99.6883 97.1C99.5283 97.996 99.4483 99.012 99.4483 100.148C99.4483 101.3 99.5283 102.332 99.6883 103.244C99.8483 104.14 100.12 104.844 100.504 105.356C100.904 105.868 101.432 106.124 102.088 106.124ZM115.635 108.836C114.419 108.836 113.371 108.5 112.491 107.828C111.627 107.156 110.955 106.18 110.475 104.9C110.011 103.604 109.779 102.02 109.779 100.148C109.779 98.292 110.019 96.724 110.499 95.444C110.979 94.148 111.651 93.164 112.515 92.492C113.395 91.82 114.435 91.484 115.635 91.484C117.475 91.484 118.907 92.236 119.931 93.74C120.971 95.228 121.491 97.364 121.491 100.148C121.491 102.948 120.971 105.1 119.931 106.604C118.907 108.092 117.475 108.836 115.635 108.836ZM115.635 106.124C116.323 106.124 116.851 105.868 117.219 105.356C117.603 104.844 117.875 104.14 118.035 103.244C118.195 102.332 118.275 101.3 118.275 100.148C118.275 99.012 118.195 97.996 118.035 97.1C117.875 96.204 117.603 95.5 117.219 94.988C116.851 94.46 116.323 94.196 115.635 94.196C114.979 94.196 114.451 94.46 114.051 94.988C113.667 95.5 113.395 96.204 113.235 97.1C113.075 97.996 112.995 99.012 112.995 100.148C112.995 101.3 113.075 102.332 113.235 103.244C113.395 104.14 113.667 104.844 114.051 105.356C114.451 105.868 114.979 106.124 115.635 106.124Z" fill="white"/>
</svg>

