<svg width="200" height="150" viewBox="0 0 200 150" fill="none" xmlns="http://www.w3.org/2000/svg">
<rect width="200" height="150" fill="#D9D9D9"/>
<path d="M54.0019 83.5C53.9859 83.356 53.9779 83.172 53.9779 82.948C53.9779 82.708 53.9779 82.524 53.9779 82.396C53.9779 81.372 54.1939 80.46 54.6259 79.66C55.0579 78.86 55.5939 78.124 56.2339 77.452C56.8899 76.78 57.5459 76.124 58.2019 75.484C58.7299 74.988 59.2019 74.524 59.6179 74.092C60.0499 73.644 60.3939 73.204 60.6499 72.772C60.9059 72.34 61.0339 71.876 61.0339 71.38C61.0339 70.58 60.8099 70.02 60.3619 69.7C59.9139 69.364 59.3619 69.196 58.7059 69.196C58.1139 69.196 57.5699 69.3 57.0739 69.508C56.5939 69.716 56.1859 69.956 55.8499 70.228C55.5139 70.5 55.2739 70.708 55.1299 70.852L53.5699 68.668C53.9699 68.284 54.4339 67.932 54.9619 67.612C55.5059 67.276 56.0979 67.004 56.7379 66.796C57.3939 66.588 58.0819 66.484 58.8019 66.484C60.6899 66.484 62.0659 66.908 62.9299 67.756C63.8099 68.588 64.2499 69.732 64.2499 71.188C64.2499 71.988 64.0499 72.756 63.6499 73.492C63.2499 74.212 62.7379 74.9 62.1139 75.556C61.5059 76.196 60.8819 76.82 60.2419 77.428C59.8899 77.764 59.5059 78.148 59.0899 78.58C58.6739 79.012 58.3059 79.436 57.9859 79.852C57.6819 80.252 57.5059 80.588 57.4579 80.86H64.7539V83.5H54.0019ZM72.9008 83.836C71.6848 83.836 70.6368 83.5 69.7568 82.828C68.8928 82.156 68.2208 81.18 67.7408 79.9C67.2768 78.604 67.0448 77.02 67.0448 75.148C67.0448 73.292 67.2848 71.724 67.7648 70.444C68.2448 69.148 68.9168 68.164 69.7808 67.492C70.6608 66.82 71.7008 66.484 72.9008 66.484C74.7408 66.484 76.1728 67.236 77.1968 68.74C78.2368 70.228 78.7568 72.364 78.7568 75.148C78.7568 77.948 78.2368 80.1 77.1968 81.604C76.1728 83.092 74.7408 83.836 72.9008 83.836ZM72.9008 81.124C73.5888 81.124 74.1168 80.868 74.4848 80.356C74.8688 79.844 75.1408 79.14 75.3008 78.244C75.4608 77.332 75.5408 76.3 75.5408 75.148C75.5408 74.012 75.4608 72.996 75.3008 72.1C75.1408 71.204 74.8688 70.5 74.4848 69.988C74.1168 69.46 73.5888 69.196 72.9008 69.196C72.2448 69.196 71.7168 69.46 71.3168 69.988C70.9328 70.5 70.6608 71.204 70.5008 72.1C70.3408 72.996 70.2608 74.012 70.2608 75.148C70.2608 76.3 70.3408 77.332 70.5008 78.244C70.6608 79.14 70.9328 79.844 71.3168 80.356C71.7168 80.868 72.2448 81.124 72.9008 81.124ZM86.4477 83.836C85.2317 83.836 84.1837 83.5 83.3037 82.828C82.4397 82.156 81.7677 81.18 81.2877 79.9C80.8237 78.604 80.5917 77.02 80.5917 75.148C80.5917 73.292 80.8317 71.724 81.3117 70.444C81.7917 69.148 82.4637 68.164 83.3277 67.492C84.2077 66.82 85.2477 66.484 86.4477 66.484C88.2877 66.484 89.7197 67.236 90.7437 68.74C91.7837 70.228 92.3037 72.364 92.3037 75.148C92.3037 77.948 91.7837 80.1 90.7437 81.604C89.7197 83.092 88.2877 83.836 86.4477 83.836ZM86.4477 81.124C87.1357 81.124 87.6637 80.868 88.0317 80.356C88.4157 79.844 88.6877 79.14 88.8477 78.244C89.0077 77.332 89.0877 76.3 89.0877 75.148C89.0877 74.012 89.0077 72.996 88.8477 72.1C88.6877 71.204 88.4157 70.5 88.0317 69.988C87.6637 69.46 87.1357 69.196 86.4477 69.196C85.7917 69.196 85.2637 69.46 84.8637 69.988C84.4797 70.5 84.2077 71.204 84.0477 72.1C83.8877 72.996 83.8077 74.012 83.8077 75.148C83.8077 76.3 83.8877 77.332 84.0477 78.244C84.2077 79.14 84.4797 79.844 84.8637 80.356C85.2637 80.868 85.7917 81.124 86.4477 81.124ZM96.6586 81.532L94.8346 79.708L98.1946 76.372L94.8346 73.012L96.6586 71.188L99.9946 74.548L103.355 71.188L105.179 73.012L101.819 76.372L105.179 79.708L103.355 81.532L99.9946 78.172L96.6586 81.532ZM113.013 83.5V71.02C112.725 71.228 112.381 71.444 111.981 71.668C111.597 71.876 111.197 72.076 110.781 72.268C110.381 72.444 109.973 72.596 109.557 72.724L108.621 70.3C109.565 69.932 110.517 69.46 111.477 68.884C112.437 68.308 113.261 67.636 113.949 66.868H116.157V83.5H113.013ZM125.96 83.86C125.368 83.86 124.76 83.804 124.136 83.692C123.512 83.596 122.952 83.484 122.456 83.356C121.976 83.212 121.616 83.092 121.376 82.996L121.976 80.38C122.328 80.54 122.832 80.716 123.488 80.908C124.144 81.084 124.928 81.172 125.84 81.172C126.656 81.172 127.304 81.06 127.784 80.836C128.28 80.596 128.64 80.284 128.864 79.9C129.088 79.516 129.2 79.108 129.2 78.676C129.2 77.988 129 77.412 128.6 76.948C128.216 76.484 127.536 76.132 126.56 75.892C125.584 75.636 124.208 75.508 122.432 75.508C122.528 74.74 122.608 73.988 122.672 73.252C122.752 72.5 122.816 71.764 122.864 71.044C122.928 70.324 122.976 69.612 123.008 68.908C123.04 68.204 123.072 67.524 123.104 66.868H131.768V69.508H125.744C125.728 69.796 125.712 70.1 125.696 70.42C125.68 70.74 125.656 71.06 125.624 71.38C125.592 71.7 125.56 72.004 125.528 72.292C125.512 72.58 125.488 72.836 125.456 73.06C127.824 73.188 129.568 73.724 130.688 74.668C131.808 75.612 132.368 76.908 132.368 78.556C132.368 79.564 132.136 80.468 131.672 81.268C131.208 82.068 130.496 82.7 129.536 83.164C128.592 83.628 127.4 83.86 125.96 83.86ZM140.635 83.836C139.419 83.836 138.371 83.5 137.491 82.828C136.627 82.156 135.955 81.18 135.475 79.9C135.011 78.604 134.779 77.02 134.779 75.148C134.779 73.292 135.019 71.724 135.499 70.444C135.979 69.148 136.651 68.164 137.515 67.492C138.395 66.82 139.435 66.484 140.635 66.484C142.475 66.484 143.907 67.236 144.931 68.74C145.971 70.228 146.491 72.364 146.491 75.148C146.491 77.948 145.971 80.1 144.931 81.604C143.907 83.092 142.475 83.836 140.635 83.836ZM140.635 81.124C141.323 81.124 141.851 80.868 142.219 80.356C142.603 79.844 142.875 79.14 143.035 78.244C143.195 77.332 143.275 76.3 143.275 75.148C143.275 74.012 143.195 72.996 143.035 72.1C142.875 71.204 142.603 70.5 142.219 69.988C141.851 69.46 141.323 69.196 140.635 69.196C139.979 69.196 139.451 69.46 139.051 69.988C138.667 70.5 138.395 71.204 138.235 72.1C138.075 72.996 137.995 74.012 137.995 75.148C137.995 76.3 138.075 77.332 138.235 78.244C138.395 79.14 138.667 79.844 139.051 80.356C139.451 80.868 139.979 81.124 140.635 81.124Z" fill="white"/>
</svg>
