<svg xmlns="http://www.w3.org/2000/svg" viewBox="0 0 64 64" id="certificate">
  <path d="M42.86,46.75H12.53c-1.26,0-2.28-1.02-2.28-2.28V20.28c0-1.26,1.02-2.28,2.28-2.28H50.72c1.26,0,2.28,1.02,2.28,2.28v17.29c.02,.64,1,.66,1,0V20.28c0-1.81-1.47-3.28-3.28-3.28H12.53c-1.81,0-3.28,1.47-3.28,3.28v24.19c0,1.81,1.47,3.28,3.28,3.28h30.33c.64,0,.58-.99,0-1Z"></path>
  <path d="M43 23c.55 0 1-.45 1-1v-1c0-.55-.45-1-1-1H21c-.55 0-1 .45-1 1v1c0 .55.45 1 1 1h22zm-22-2h22v1H21v-1zM48.72 26H15.28c-.28 0-.5.22-.5.5s.22.5.5.5H48.72c.28 0 .5-.22.5-.5s-.22-.5-.5-.5zM42.47 31h4.03c.28 0 .5-.22.5-.5s-.22-.5-.5-.5h-4.03c-.28 0-.5.22-.5.5s.22.5.5.5zM36.75 30.5c0-.28-.22-.5-.5-.5H15.28c-.28 0-.5.22-.5.5s.22.5.5.5h20.97c.28 0 .5-.22.5-.5zM31 34.5c0-.28-.22-.5-.5-.5H15.28c-.28 0-.5.22-.5.5s.22.5.5.5h15.22c.28 0 .5-.22.5-.5zM34 34.5c0 .28.22.5.5.5h6.03c.28 0 .5-.22.5-.5s-.22-.5-.5-.5h-6.03c-.28 0-.5.22-.5.5zM47.5 34h-4.12c-.28 0-.5.22-.5.5s.22.5.5.5h4.12c.28 0 .5-.22.5-.5s-.22-.5-.5-.5z"></path>
  <path d="M58.67,45.92l-1.67-1.98,.88-2.45c.22-.62,.13-1.31-.25-1.84-.17-.24-.38-.44-.63-.58V15c0-.55-.45-1-1-1H7.25c-.55,0-1,.45-1,1V49.75c0,.55,.45,1,1,1H44.74c.35,.3,.8,.46,1.27,.46,.12,0,.24,0,.36-.03l1.63-.29v6.11c0,.4,.24,.77,.62,.92,.12,.06,.25,.08,.38,.08,.26,0,.52-.1,.71-.29l1.29-1.3,1.29,1.3c.19,.19,.45,.29,.71,.29,.13,0,.26-.02,.38-.08,.38-.15,.62-.52,.62-.92v-4.81s.03-.06,.04-.09l.49-1.35h1.47c.55,0,1-.45,1-1v-.46l.48-.09c.72-.13,1.29-.61,1.54-1.3,.25-.68,.12-1.42-.35-1.98Zm-51.42,3.83V15H56v23.79h-.01c-.12,0-.24,.01-.36,.03l-1.63,.29-.92,.16-.08-.09-1.6-1.89c-.39-.46-.95-.72-1.54-.72-.86,0-1.6,.52-1.9,1.33l-.88,2.44-2.56,.46c-.72,.13-1.29,.61-1.54,1.3-.25,.68-.12,1.42,.35,1.98l1.67,1.98-.25,.69-.36,1-.27,.76c-.14,.4-.16,.84-.03,1.24H7.25Zm45.75,7.25l-2-2-2,2v-6.18l1.6,1.89c.39,.46,.95,.72,1.54,.72,.31,0,.6-.07,.86-.19v3.76Zm3-7.25h-1.11l.03-.09,1.08-.19v.28Zm1.3-1.53l-.3,.05-1,.18-1.25,.22c-.34,.06-.62,.29-.75,.61-.01,.01-.02,.03-.02,.04l-.16,.43-.36,1-.36,1.01c-.03,.07-.06,.14-.1,.2-.2,.3-.53,.47-.86,.47-.28,0-.57-.12-.77-.36l-1.11-1.32-.56-.66c-.14-.17-.33-.29-.53-.34-.05-.01-.11-.02-.17-.02-.02-.01-.05-.01-.08-.01-.06,0-.12,.01-.17,.02h-.06s-.69,.13-.69,.13l-1.8,.32c-.07,.02-.13,.02-.19,.02-.35,0-.66-.19-.85-.46-.16-.25-.21-.58-.1-.9l.4-1.1,.37-1,.12-.33c.12-.34,.05-.73-.18-1l-1.67-1.98c-.5-.6-.17-1.52,.6-1.66l2.55-.45c.35-.06,.65-.31,.77-.65l.88-2.44c.16-.43,.56-.67,.96-.67,.28,0,.57,.12,.77,.36l1.67,1.98c.18,.22,.43,.35,.7,.36,.03,.01,.05,.01,.08,.01,.06,0,.12-.01,.17-.02l.75-.14,1.8-.32c.07-.01,.13-.01,.19-.01h.01c.56,.01,1,.47,1,1.01,0,.12-.02,.23-.06,.35l-.89,2.43c-.02,.06-.03,.11-.05,.17v.35c.04,.18,.11,.34,.23,.48l.77,.91,.9,1.07c.5,.6,.17,1.52-.6,1.66Z"></path>
  <path d="M53 41.54c-.59-.34-1.27-.54-2-.54-2.21 0-4 1.79-4 4 0 .63.15 1.22.41 1.75.15.33.35.63.59.89.03.04.07.08.1.11.26.28.56.52.9.71.59.34 1.27.54 2 .54s1.41-.2 2-.54c.38-.22.72-.49 1-.82.62-.71 1-1.63 1-2.64s-.38-1.93-1-2.64c-.28-.33-.62-.6-1-.82zm.71 4.75c-.17.36-.41.68-.71.94-.53.48-1.23.77-2 .77-.42 0-.83-.09-1.19-.25-.3-.12-.57-.3-.81-.52-.16-.14-.31-.3-.44-.48-.1-.14-.19-.3-.27-.46-.18-.39-.29-.83-.29-1.29 0-1.66 1.34-3 3-3 .77 0 1.47.29 2 .77.56.49.93 1.19.98 1.98.02.08.02.17.02.25 0 .46-.11.9-.29 1.29zM33.5 43h8c.28 0 .5-.22.5-.5s-.22-.5-.5-.5h-8c-.28 0-.5.22-.5.5s.22.5.5.5zM21.23 41.92c.15.09.29.13.44.13.36 0 .72-.24 1.08-.47.5-.33 1.05-.7 1.67-.59.32.06.51.21.76.41.3.24.68.55 1.29.6.8.07 1.6-.33 2.4-1.15.19-.2.19-.52-.01-.71-.2-.19-.51-.19-.71.01-.58.6-1.09.89-1.6.85-.3-.02-.49-.17-.74-.38-.29-.23-.64-.52-1.21-.62-1-.17-1.8.35-2.39.74-.11.08-.25.17-.37.23.02-.22.1-.56.15-.79.18-.78.37-1.58-.13-2.05-.58-.55-1.79-.58-6.64 2.96-.22.16-.27.48-.11.7.17.22.48.27.7.11 4.46-3.26 5.29-3.06 5.35-3.06.08.15-.06.78-.14 1.11-.18.77-.36 1.58.23 1.96z"></path>
</svg>
