<svg width="1460" height="1220" viewBox="0 0 1460 1220" fill="none" xmlns="http://www.w3.org/2000/svg">
    <path d="M656.324 1019.16C682.416 1023.39 709.296 1026.31 735.542 1029.16L736.08 1029.22L736.088 1029.22C739.372 1029.57 742.649 1029.93 745.92 1030.29L745.923 1030.29C775.584 1033.53 804.202 1036.88 830.527 1042.12L830.866 1042.19H830.92C837.256 1043.38 843.559 1044.72 849.823 1046.22L689.394 1026.55C689.387 1026.55 689.38 1026.55 689.373 1026.55C686.674 1026.19 683.928 1026.48 681.364 1027.39C678.834 1028.29 676.554 1029.78 674.708 1031.72L653.098 1053.51C644.961 1048.18 636.727 1042.53 628.7 1036.56C628.69 1036.55 628.678 1036.54 628.664 1036.53C628.638 1036.51 628.603 1036.48 628.562 1036.45C628.551 1036.44 628.539 1036.44 628.527 1036.43C612.068 1024.59 596.114 1012.08 580.708 998.922C605.149 1008.2 630.482 1014.98 656.324 1019.16ZM656.324 1019.16L656.884 1015.71M656.324 1019.16L656.884 1015.71M656.884 1015.71C628.016 1011.04 599.788 1003.09 572.746 992.019L831.211 1038.69C804.716 1033.41 775.955 1030.05 746.303 1026.81C743.032 1026.45 739.749 1026.09 736.458 1025.74L735.965 1025.69C709.688 1022.83 682.885 1019.92 656.884 1015.71ZM628.756 1036.6L628.751 1036.6C628.757 1036.6 628.761 1036.6 628.756 1036.6Z" stroke="#FEFEFE" stroke-width="7"/>
    <path d="M901.486 970.782C901.074 970.23 900.72 969.643 900.427 969.028C892.868 961.518 884.644 954.225 875.944 946.791C811.445 891.966 719.487 843.686 584.027 810.693L584.02 810.692L583.968 810.679L583.961 810.677C543.079 800.69 501.943 793.137 461.242 785.704L461.242 785.704L459.212 785.333L459.211 785.333L459.171 785.326C419.284 778.043 379.783 770.831 341.932 761.551L901.486 970.782ZM901.486 970.782C888.804 966.681 875.819 963.59 862.652 961.536C841.709 957.975 818.18 955.276 789.908 952.803L789.756 952.79H789.748C762.456 950.433 735.987 948.635 710.201 946.888C618.409 940.673 535.389 935.035 453.176 906.486C418.407 894.268 388.745 870.741 368.935 839.677C368.926 839.662 368.914 839.643 368.901 839.624C368.899 839.62 368.897 839.617 368.895 839.613L365.448 834.139L365.444 834.133L365.413 834.084L365.407 834.075L365.401 834.065L314.1 754.094L341.704 761.492C341.706 761.493 341.708 761.493 341.709 761.494C341.797 761.517 341.876 761.537 341.931 761.55L901.486 970.782Z" stroke="#FEFEFE" stroke-width="7"/>
    <path d="M274.726 619.628L274.699 619.61L274.67 619.593L274.643 619.577L274.621 619.564C274.62 619.563 274.62 619.563 274.619 619.562C251.019 605.297 228.502 589.315 207.248 571.747C199.139 564.133 191.728 555.809 185.102 546.875C185.064 546.823 185.028 546.775 184.993 546.731C140.408 488.244 100.504 426.335 65.6518 361.579C58.9243 348.59 54.9076 334.402 53.8087 319.876C60.5715 326.008 67.432 331.994 74.2984 337.74C74.3002 337.741 74.3019 337.743 74.3037 337.744L74.3348 337.77L74.3503 337.783L74.3659 337.796C150.513 400.529 240.948 443.147 341.016 482.818C376.843 497.021 413.863 510.835 451.954 525.046C520.669 550.685 592.897 577.636 668.208 610.625C800.458 668.73 884.941 717.079 944.766 764.039C998.698 806.374 1032.89 847.812 1064.03 894.936C1034.43 875.037 1002.13 859.418 968.087 848.571C923.9 833.715 872.38 820.845 816.757 807.712C803.621 804.61 790.248 801.491 776.677 798.327L776.463 798.276L775.668 801.685L776.462 798.276C732.463 788.018 686.378 777.273 639.319 764.992C516 732.811 387.03 690.332 274.795 619.671C274.761 619.649 274.732 619.631 274.726 619.628Z" stroke="#FEFEFE" stroke-width="7"/>
    <path d="M99.7832 227.596L99.7907 227.604C212.072 345.213 344.968 412.567 485.892 469.508L484.581 472.753L485.892 469.508C527.422 486.289 569.705 502.179 612.369 518.212L612.401 518.225L612.513 518.267C714.145 556.461 817.915 595.458 918.002 649.009C983.875 684.129 1034.63 717.44 1074.45 759.192C1033.21 679.932 977.034 609.273 908.911 551.156L908.881 551.13L908.852 551.105L908.835 551.09L908.829 551.085C908.817 551.074 908.797 551.056 908.776 551.037L908.768 551.031M99.7832 227.596L911.098 548.419L908.768 551.031M99.7832 227.596L99.7756 227.588M99.7832 227.596L99.7756 227.588M908.768 551.031L908.749 551.013L908.744 551.009C807.978 461.294 694.242 389.782 577.475 321.644C548.867 304.95 520.071 288.457 491.242 271.944L491.213 271.927L491.174 271.905C403.369 221.612 315.255 171.141 231.677 114.558M908.768 551.031L231.677 114.558M231.677 114.558C231.96 114.624 232.245 114.679 232.533 114.722L233.049 111.26L231.086 114.157C231.283 114.291 231.48 114.424 231.677 114.558ZM231.677 114.558C230.429 114.264 229.238 113.744 228.165 113.013L230.136 110.121L231.677 114.558ZM99.7756 227.588C99.7294 227.541 99.6816 227.492 99.6324 227.442L99.6258 227.435M99.7756 227.588L99.6258 227.435M99.6258 227.435L99.6192 227.429M99.6258 227.435L99.6192 227.429M99.6192 227.429C97.9034 225.713 96.3525 224.01 94.5972 222.082C93.6232 221.012 92.5901 219.877 91.454 218.66C89.1303 216.148 87.8976 212.818 88.0251 209.4C88.1527 205.978 89.6341 202.745 92.1459 200.411L92.1466 200.41M99.6192 227.429L92.1466 200.41M92.1466 200.41C92.8928 199.717 93.741 199.14 94.662 198.701L94.6686 198.698C94.767 198.65 94.8641 198.602 94.96 198.552M92.1466 200.41L127.545 187.181H127.564H129.62H163.45M163.45 187.181L163.354 190.68C163.37 190.68 163.386 190.681 163.402 190.681M163.45 187.181V190.681H163.402M163.45 187.181C183.387 187.731 203.221 184.127 221.689 176.599M163.402 190.681H129.62H127.564H127.545H127.535C116.201 190.65 105.027 193.351 94.96 198.552M163.402 190.681C183.805 191.237 204.102 187.546 223.003 179.843M94.96 198.552C94.9606 198.552 94.9612 198.552 94.9618 198.551L93.3535 195.443L94.96 198.552ZM223.003 179.843C223 179.844 222.997 179.846 222.994 179.847L221.689 176.599M223.003 179.843C225.076 179.009 226.964 177.772 228.555 176.202L226.126 173.739L228.555 176.201C230.158 174.621 231.428 172.734 232.291 170.654M223.003 179.843C223.005 179.842 223.008 179.841 223.01 179.84L221.689 176.599M221.689 176.599C223.335 175.938 224.834 174.956 226.097 173.71C227.367 172.457 228.374 170.962 229.057 169.314M232.291 170.654C232.29 170.655 232.29 170.655 232.29 170.656L229.057 169.314M232.291 170.654C233.153 168.575 233.591 166.343 233.577 164.091M232.291 170.654L229.057 169.314M229.057 169.314C229.741 167.666 230.088 165.897 230.077 164.113L233.577 164.093C233.577 164.092 233.577 164.092 233.577 164.091M233.577 164.091C233.569 162.714 233.392 161.347 233.053 160.019M911.182 548.493C982.834 609.62 1041.34 684.553 1083.24 768.751L911.182 548.493ZM218.704 112.007C218.705 112.007 218.705 112.006 218.706 112.006L217.385 108.765L218.704 112.007Z" stroke="#FEFEFE" stroke-width="7"/>
    <path d="M1347.16 1007.28L1347.15 1007.29L1112.77 1066.47L1112.42 1066.56C1109.17 1067.26 1105.76 1066.7 1102.89 1064.99C1099.94 1063.23 1097.8 1060.39 1096.92 1057.08C1096.92 1057.05 1096.91 1057.01 1096.9 1056.98C1096.87 1056.83 1096.83 1056.71 1096.81 1056.64C1096.07 1054.03 1096.04 1051.3 1096.72 1048.69C1109.1 1016.27 1123.93 982.36 1139.48 946.972L1139.52 946.9L1139.57 946.783C1171.37 872.596 1171.03 810.307 1151.3 754.736L1148 755.907L1151.3 754.735C1131.89 700.104 1094.03 652.84 1052.18 607.645V607.635L1051.24 606.627C950.752 498.614 824.587 405.83 693.005 318.007C644.419 285.579 595.135 253.85 546.09 222.276L546.066 222.261C461.953 168.11 378.55 114.416 300.377 58.3043C300.3 58.2489 300.229 58.1999 300.172 58.1614C297.217 56.1414 295.182 53.0359 294.51 49.5241L294.51 49.5235C293.849 46.0715 294.556 42.5 296.479 39.5621C298.052 37.465 300.243 35.9122 302.748 35.1248L302.751 35.1237C302.882 35.0826 303.015 35.0378 303.151 34.9889L303.151 34.9889L360.259 14.4547C370.5 10.907 381.412 9.72419 392.176 10.9955L392.586 7.51966L392.176 10.9955C402.958 12.269 413.311 15.9717 422.453 21.8244L422.453 21.8245L756.389 235.588L756.396 235.592L756.404 235.597L756.421 235.608L756.454 235.629C756.474 235.642 756.506 235.661 756.543 235.684C760.818 238.325 765.609 240.021 770.594 240.655L770.607 240.657L770.619 240.658L770.669 240.664L914.529 257.92L914.544 257.922L914.607 257.929L914.625 257.932C924.526 259.102 934.073 262.321 942.658 267.384L944.366 264.488L942.658 267.384C951.243 272.446 958.678 279.24 964.489 287.333C964.531 287.392 964.574 287.451 964.617 287.506C964.622 287.513 964.627 287.52 964.632 287.526L1234.76 649.401C1234.79 649.443 1234.82 649.482 1234.85 649.519C1234.86 649.537 1234.88 649.555 1234.89 649.571C1237.74 653.374 1241.36 656.536 1245.5 658.858L1245.5 658.86C1249.7 661.211 1254.33 662.651 1259.13 663.084L1259.17 663.087L1259.17 663.088L1259.21 663.091L1259.24 663.093L1408.45 676.037L1408.45 676.037C1408.75 676.063 1409.06 676.076 1409.36 676.076H1411.9C1413.9 676.5 1415.77 677.361 1417.4 678.601C1419.21 679.986 1420.65 681.797 1421.58 683.867L1421.59 683.902L1421.62 683.965L1421.64 683.992C1437.6 719.094 1447.02 756.812 1449.45 795.294C1450.23 835.055 1442.03 874.48 1425.45 910.632C1408.86 946.813 1384.31 978.78 1353.63 1004.15C1353.53 1004.23 1353.44 1004.3 1353.38 1004.36C1353.34 1004.39 1353.3 1004.42 1353.27 1004.45C1351.68 1005.81 1349.76 1006.74 1347.71 1007.16C1347.47 1007.21 1347.24 1007.26 1347.18 1007.28L1347.16 1007.28Z" stroke="#FEFEFE" stroke-width="7"/>
</svg>