<svg version="1.1" xmlns="http://www.w3.org/2000/svg" xmlns:xlink="http://www.w3.org/1999/xlink" x="0px" y="0px" viewBox="0 0 256 256" enable-background="new 0 0 256 256" xml:space="preserve">
    <g>
        <g>
            <g>
                <path fill="#000000" d="M21.2,32.1c-4.6,0.9-7.9,2.5-9.2,4.6c-2.1,3.5-2.2,6-2,70.8c0.2,58.2,0.2,62.4,1.1,65c1.2,3.4,3.4,6,6,6.9c1.5,0.6,7.7,0.8,26.7,1c19.9,0.3,24.9,0.5,25.6,1.1c0.8,0.6,0.9,2.6,0.9,19.1c0,19.3,0.1,20.5,2.5,22.6c1.5,1.4,4.4,1.7,6.5,0.7c1-0.4,12-9.7,24.4-20.6c16.1-14.1,23.4-20.2,25.5-21.2l2.9-1.4l51.7-0.3c57.2-0.3,55-0.2,59-3.7c3.4-2.9,3.2-0.1,3.2-70.4c0-61-0.1-63.9-1-66.7c-1.5-4.3-3-6.1-6.2-7.2c-2.6-0.9-8.6-0.9-108.3-1C46.4,31.5,24.2,31.6,21.2,32.1z M235.3,40c2.8,0.8,2.8-0.4,2.8,66.5c0,33.9-0.2,62.3-0.4,63.1c-0.8,2.8,0.4,2.7-55.8,3l-52,0.3l-2.7,1.2c-1.5,0.6-3.3,1.5-3.9,1.8c-0.7,0.4-11,9.2-23,19.7l-21.8,19l-0.3-17.5L78,179.6l-1.4-2.1c-0.8-1.2-2.3-2.7-3.4-3.4l-2-1.3l-24.9-0.3c-13.7-0.2-25.4-0.5-25.8-0.7c-2.3-1-2.3-1.2-2.3-66.2c0-34.1,0.2-62.6,0.4-63.4c0.4-1.4,1.7-1.9,7.2-2.7C28.4,39.2,234,39.6,235.3,40z"/>
                <path fill="#000000" d="M44.9,66.1c-1.7,1.4-1.9,4.1-0.3,5.7c1,1,1.7,1,83.5,1c81.8,0,82.4,0,83.5-1c1.6-1.6,1.4-4.4-0.3-5.7l-1.4-1.1h-81.8H46.3L44.9,66.1z"/>
                <path fill="#000000" d="M44.9,99.7c-1.7,1.4-1.9,4.1-0.3,5.7c1,1,1.7,1,83.5,1c81.8,0,82.4,0,83.5-1c1.6-1.6,1.4-4.4-0.3-5.7l-1.4-1.1h-81.8H46.3L44.9,99.7z"/>
                <path fill="#000000" d="M44.9,133.3c-1.7,1.4-1.9,4.1-0.3,5.7c1,1,1.7,1,33.1,1c31.4,0,32,0,33.1-1c1.6-1.6,1.4-4.4-0.3-5.7c-1.4-1.1-1.8-1.1-32.8-1.1C46.8,132.2,46.3,132.2,44.9,133.3z"/>
            </g>
        </g>
    </g>
</svg>