<svg width="40" height="40" viewBox="0 0 40 40" fill="none" xmlns="http://www.w3.org/2000/svg">
<rect width="40" height="40" rx="4" fill="black"/>
<path fill-rule="evenodd" clip-rule="evenodd" d="M20 5C11.715 5 5 11.8849 5 20.3797C5 27.1736 9.29667 32.9391 15.2582 34.9745C16.0086 35.1133 16.2793 34.6399 16.2793 34.2328C16.2793 33.8674 16.2673 32.899 16.2628 31.6176C12.0894 32.5459 11.2081 29.5545 11.2081 29.5545C10.5284 27.7781 9.54331 27.3047 9.54331 27.3047C8.18227 26.3502 9.64708 26.3718 9.64708 26.3718C11.154 26.4798 11.9436 27.957 11.9436 27.957C13.282 30.3069 15.4567 29.6285 16.3079 29.2353C16.4448 28.2407 16.8358 27.5622 17.2629 27.1783C13.9332 26.7912 10.4321 25.4713 10.4321 19.5763C10.4321 17.9002 11.0171 16.5247 11.9721 15.4515C11.8202 15.0614 11.3014 13.4963 12.121 11.3807C12.121 11.3807 13.3798 10.9659 16.2447 12.9551C17.4683 12.6138 18.7305 12.4396 19.9985 12.437C21.2666 12.4391 22.5288 12.6133 23.7523 12.9551C26.6187 10.9644 27.876 11.3807 27.876 11.3807C28.6956 13.4963 28.1813 15.0614 28.0249 15.4515C28.9874 16.5247 29.5649 17.8986 29.5649 19.5763C29.5649 25.4867 26.0608 26.7851 22.7191 27.1659C23.253 27.6409 23.7342 28.5784 23.7342 30.0124C23.7342 32.0694 23.7162 33.7286 23.7162 34.2328C23.7162 34.6445 23.9839 35.1225 24.7493 34.9714C30.7078 32.9329 35 27.1721 35 20.3797C35 11.8849 28.285 5 20 5Z" fill="white"/>
</svg>
