<svg width="40" height="40" viewBox="0 0 40 40" fill="none" xmlns="http://www.w3.org/2000/svg">
<rect width="40" height="40" rx="5" fill="url(#paint0_linear_99_192)"/>
<path fill-rule="evenodd" clip-rule="evenodd" d="M5 0C2.23858 0 0 2.23858 0 5V35C0 37.7614 2.23857 40 4.99999 40H35.0001C37.7615 40 40.0001 37.7614 40.0001 35V5C40.0001 2.23858 37.7615 0 35.0001 0H5Z" fill="url(#paint1_linear_99_192)"/>
<path fill-rule="evenodd" clip-rule="evenodd" d="M5 0C2.23858 0 0 2.23858 0 5V35C0 37.7614 2.23857 40 4.99999 40H35.0001C37.7615 40 40.0001 37.7614 40.0001 35V5C40.0001 2.23858 37.7615 0 35.0001 0H5Z" fill="url(#paint2_linear_99_192)" fill-opacity="0.2"/>
<path d="M29.25 12.5C30.4926 12.5 31.5 11.4926 31.5 10.25C31.5 9.00736 30.4926 8 29.25 8C28.0074 8 27 9.00736 27 10.25C27 11.4926 28.0074 12.5 29.25 12.5Z" fill="white"/>
<path d="M20.5 13C18.5109 13 16.6032 13.7902 15.1967 15.1967C13.7902 16.6032 13 18.5109 13 20.5C13 22.4891 13.7902 24.3968 15.1967 25.8033C16.6032 27.2098 18.5109 28 20.5 28C22.4891 28 24.3968 27.2098 25.8033 25.8033C27.2098 24.3968 28 22.4891 28 20.5C28 18.5109 27.2098 16.6032 25.8033 15.1967C24.3968 13.7902 22.4891 13 20.5 13ZM20.5 25.3708C19.2078 25.3708 17.9684 24.8574 17.0547 23.9437C16.1409 23.0299 15.6276 21.7906 15.6276 20.4984C15.6276 19.2061 16.1409 17.9668 17.0547 17.0531C17.9684 16.1393 19.2078 15.626 20.5 15.626C21.7922 15.626 23.0316 16.1393 23.9453 17.0531C24.8591 17.9668 25.3724 19.2061 25.3724 20.4984C25.3724 21.7906 24.8591 23.0299 23.9453 23.9437C23.0316 24.8574 21.7922 25.3708 20.5 25.3708Z" fill="white"/>
<path d="M30 5H10C7.23858 5 5 7.23858 5 10V30C5 32.7614 7.23858 35 10 35H30C32.7614 35 35 32.7614 35 30V10C35 7.23858 32.7614 5 30 5Z" stroke="white" stroke-width="2"/>
<defs>
    <linearGradient id="paint0_linear_99_192" x1="1.5" y1="38.5" x2="38" y2="0.999999" gradientUnits="userSpaceOnUse">
        <stop offset="0.09" stop-color="#FA8F21"/>
        <stop offset="0.78" stop-color="#D82D7E"/>
    </linearGradient>
    <linearGradient id="paint1_linear_99_192" x1="34.0793" y1="72.6035" x2="1.4818" y2="6.91457" gradientUnits="userSpaceOnUse">
        <stop offset="0.78" stop-color="#8C3AAA" stop-opacity="0"/>
        <stop offset="1" stop-color="#8C3AAA"/>
    </linearGradient>
    <linearGradient id="paint2_linear_99_192" x1="20" y1="26.5" x2="22.5" y2="37.5" gradientUnits="userSpaceOnUse">
        <stop offset="0.78" stop-color="#8C3AAA" stop-opacity="0"/>
        <stop offset="1" stop-color="#8C3AAA"/>
    </linearGradient>
</defs>
</svg>
