<svg width="40" height="40" viewBox="0 0 40 40" fill="none" xmlns="http://www.w3.org/2000/svg">
    <rect width="40" height="40" rx="5" fill="white"/>
    <g clip-path="url(#clip0_88_178)">
        <path d="M31.75 11.5C33.5449 11.5 35 10.0449 35 8.25C35 6.45507 33.5449 5 31.75 5C29.9551 5 28.5 6.45507 28.5 8.25C28.5 10.0449 29.9551 11.5 31.75 11.5Z" fill="#D9D9D9"/>
    </g>
    <g clip-path="url(#clip1_88_178)">
        <path d="M20 11.5C17.3478 11.5 14.8043 12.5536 12.9289 14.4289C11.0536 16.3043 10 18.8478 10 21.5C10 24.1522 11.0536 26.6957 12.9289 28.5711C14.8043 30.4464 17.3478 31.5 20 31.5C22.6522 31.5 25.1957 30.4464 27.0711 28.5711C28.9464 26.6957 30 24.1522 30 21.5C30 18.8478 28.9464 16.3043 27.0711 14.4289C25.1957 12.5536 22.6522 11.5 20 11.5ZM20 27.9944C18.277 27.9944 16.6246 27.3099 15.4063 26.0916C14.1879 24.8732 13.5035 23.2208 13.5035 21.4978C13.5035 19.7748 14.1879 18.1224 15.4063 16.9041C16.6246 15.6858 18.277 15.0013 20 15.0013C21.723 15.0013 23.3754 15.6858 24.5938 16.9041C25.8121 18.1224 26.4965 19.7748 26.4965 21.4978C26.4965 23.2208 25.8121 24.8732 24.5938 26.0916C23.3754 27.3099 21.723 27.9944 20 27.9944Z" fill="#D9D9D9"/>
    </g>
    <defs>
        <clipPath id="clip0_88_178">
            <rect width="30" height="6.5" fill="white" transform="translate(5 5)"/>
        </clipPath>
        <clipPath id="clip1_88_178">
            <rect width="30" height="20" fill="white" transform="translate(5 11.5)"/>
        </clipPath>
    </defs>
</svg>
