<svg width="20" height="20" viewBox="0 0 20 19" fill="none" xmlns="http://www.w3.org/2000/svg">
    <g clip-path="url(#clip0_605_1029)">
        <rect x="0.5" width="19" height="19" rx="1" fill="#312E32"/>
        <path d="M1.5 0C0.947715 0 0.5 0.447715 0.5 1V18C0.5 18.5523 0.947715 19 1.5 19H18.5C19.0523 19 19.5 18.5523 19.5 18V1C19.5 0.447715 19.0523 0 18.5 0H1.5ZM10.6786 14.7589C10.6786 16.6085 9.58607 17.5101 8.00458 17.5101C6.95473 17.5101 6.22861 17.1106 5.75044 16.5443C5.45991 16.2003 5.61895 15.7006 6.00417 15.4674C6.42878 15.2104 6.9144 15.4241 7.30517 15.7301C7.45346 15.8462 7.6364 15.9159 7.8854 15.9159C8.39433 15.9159 8.8125 15.6865 8.8125 14.7937V9.75446C8.8125 9.23916 9.23023 8.82143 9.74553 8.82143C10.2608 8.82143 10.6786 9.23916 10.6786 9.75446V14.7589ZM14.8921 17.4677C13.6276 17.4677 12.7044 17.0325 12.1054 16.3676C11.7947 16.0226 11.9543 15.5046 12.3561 15.272C12.7675 15.0339 13.2731 15.197 13.644 15.4943C13.9517 15.7408 14.3376 15.8854 14.856 15.8854C15.5957 15.8854 16.0253 15.5579 16.0253 15.0477C16.0253 14.4358 15.5829 14.219 14.7665 13.8602L14.3204 13.6685C13.0319 13.1206 12.1778 12.4319 12.1778 10.9776C12.1778 9.63868 13.1978 8.66069 14.792 8.66069C15.6567 8.66069 16.336 8.86539 16.8701 9.41946C17.1737 9.73428 17.0422 10.2318 16.6744 10.4683C16.275 10.725 15.7749 10.5257 15.3552 10.3039C15.1914 10.2173 15.007 10.1786 14.7899 10.1786C14.2669 10.1786 13.9353 10.5102 13.9353 10.942C13.9353 11.4776 14.2669 11.6943 15.032 12.026L15.4782 12.2173C16.9961 12.8678 17.8506 13.532 17.8506 15.0231C17.8511 16.6305 16.5885 17.4677 14.8921 17.4677Z" fill="#ECD74A"/>
    </g>
    <defs>
        <clipPath id="clip0_605_1029">
        <rect x="0.5" width="19" height="19" rx="1" fill="white"/>
        </clipPath>
    </defs>
</svg>
