<svg width="700" height="700" viewBox="0 0 700 700" fill="none" xmlns="http://www.w3.org/2000/svg">
    <g clip-path="url(#clip0_678_444)">
        <path d="M247.325 479.281C244.584 475.195 242.187 469.685 240.24 463.092C205.093 423.456 232.245 365.129 259.1 325.522C261.675 321.287 264.48 317.196 267.529 313.283C288.019 287.825 293.32 270.108 294.897 246.14C295.085 241.677 294.715 235.771 294.291 228.983C292.123 194.331 288.52 136.757 350.348 131.653C427.632 125.271 421.336 196.242 420.765 237.851C420.741 239.573 420.717 241.249 420.702 242.865C420.492 267.947 433.582 285.121 447.245 303.045C452.235 309.593 457.301 316.238 461.825 323.407C461.958 323.619 462.092 323.833 462.225 324.045C486.102 358.481 509.674 409.872 476.864 458.616C472.253 475.254 465.27 490.525 455.949 502.952C422.485 546.989 392.741 542.518 369.512 539.026C362.506 537.974 356.092 537.01 350.348 537.493C340.806 538.075 333.158 539.617 326.552 540.951C301.017 546.105 291.038 548.12 247.325 479.281Z" fill="black"/>
        <path d="M394.055 170.505C393.337 190.901 371.703 208.618 345.768 210.255C319.833 211.893 299.484 196.41 300.202 176.013C300.917 155.617 322.554 137.901 348.489 136.263C374.424 134.774 394.77 150.109 394.055 170.505Z" fill="url(#paint0_linear_678_444)"/>
        <path fill-rule="evenodd" clip-rule="evenodd" d="M347.059 220.082C347.267 231.173 352.346 240.63 359.48 244.902C336.207 242.817 307.369 251.324 307.369 267.427C307.01 294.663 291.851 328.552 280.937 352.945C278.789 357.751 276.805 362.187 275.13 366.131C268.375 382.859 264.321 400.75 263.842 418.296C245.951 393.634 258.951 361.997 265.96 348.266C275.287 330.197 275.108 327.942 271.485 332.177C257.597 355.793 231.443 403.229 264.194 431.725C265.233 444.45 268.333 456.779 273.841 468.112C317.685 556.546 399.789 520.221 426.87 474.366C430.473 467.845 433.386 461.539 435.699 455.444C437.055 456.297 438.507 456.958 440.052 457.393C453.665 461.414 474.01 446.08 478.882 436.551C484.758 423.896 478.74 415.26 458.68 404.987C457.657 404.482 456.646 404.005 455.649 403.561C463.342 371.167 442.141 337.479 426.999 323.188C424.175 322.49 423.777 324.092 428.16 328.464C437.696 337.604 458.438 370.187 447.216 400.512C445.367 400.015 443.589 399.665 441.894 399.473C438.446 378.783 429.254 362.688 422.83 351.44C421.375 348.891 420.062 346.592 418.988 344.545C416.827 340.412 414.241 336.134 411.498 331.597C400.93 314.112 388.04 292.782 388.04 261.172C386.423 254.218 379.86 249.581 371.126 247.019C381.265 244.974 388.875 233.129 388.613 218.892C388.326 203.557 378.725 191.349 367.263 191.647C355.8 191.945 346.63 204.748 347.059 220.082ZM356.515 223.506C356.373 231.993 360.385 238.84 365.688 238.84C370.846 238.84 375.286 231.993 375.431 223.655C375.573 215.17 371.561 208.321 366.261 208.321C360.958 208.321 356.66 215.17 356.515 223.506Z" fill="url(#paint1_linear_678_444)"/>
        <path fill-rule="evenodd" clip-rule="evenodd" d="M318.404 243.901C326.714 243.455 332.732 232.29 332.017 219.04C331.299 205.789 323.993 195.517 315.68 195.963C307.37 196.41 301.352 207.576 302.07 220.825C302.785 234.075 310.093 244.347 318.404 243.901ZM323.418 223.654C324.135 230.652 321.556 236.606 317.831 237.203C314.105 237.649 310.522 232.439 309.807 225.441C309.089 218.444 311.668 212.489 315.394 211.893C319.119 211.447 322.702 216.657 323.418 223.654Z" fill="url(#paint2_linear_678_444)"/>
        <path d="M358.664 218.742C358.233 223.505 360.384 227.377 363.392 227.675C366.402 227.972 369.267 224.249 369.696 219.636C370.127 214.871 367.977 211 364.969 210.702C361.959 210.405 359.093 214.127 358.664 218.742Z" fill="url(#paint3_linear_678_444)"/>
        <path d="M320.274 219.935C320.702 223.807 319.127 227.231 316.835 227.528C314.542 227.826 312.392 224.848 311.961 220.83C311.532 216.958 313.107 213.534 315.402 213.236C317.695 212.939 319.843 216.065 320.274 219.935Z" fill="url(#paint4_linear_678_444)"/>
        <path d="M408.385 375.212C408.385 401.413 384.17 435.359 342.618 435.062C299.774 435.359 281.578 401.413 281.578 375.212C281.578 349.01 309.948 327.719 344.911 327.719C380.016 327.87 408.385 349.01 408.385 375.212Z" fill="url(#paint5_linear_678_444)"/>
        <path d="M385.758 292.889C385.329 319.985 368.277 326.386 346.783 326.386C325.291 326.386 309.672 322.365 307.811 292.889C307.811 274.429 325.291 263.708 346.783 263.708C368.277 263.559 385.758 274.28 385.758 292.889Z" fill="url(#paint6_linear_678_444)"/>
        <path d="M255.797 334.572C269.841 312.39 299.499 278.296 261.386 339.336C230.435 389.657 249.924 421.964 259.954 430.896C288.896 457.695 287.75 475.709 264.967 461.565C216.108 431.342 226.281 380.426 255.797 334.572Z" fill="url(#paint7_linear_678_444)"/>
        <path d="M459.114 343.656C446.936 317.603 408.248 251.501 460.978 328.322C508.978 397.847 475.306 446.232 469.288 450.997C463.27 455.761 443.067 465.436 448.942 448.615C454.96 431.791 484.763 399.932 459.114 343.656Z" fill="url(#paint8_linear_678_444)"/>
        <path d="M245.195 549.108C213.099 531.392 166.531 552.532 183.439 504.593C186.878 493.725 178.424 477.35 183.868 466.777C190.316 453.825 204.215 456.654 212.526 448.02C220.693 439.088 225.851 423.605 241.183 425.985C256.371 428.367 266.545 447.722 277.148 471.542C285.029 488.515 312.826 512.483 310.962 531.54C308.67 560.72 276.717 566.228 245.195 549.108Z" fill="url(#paint9_linear_678_444)"/>
        <path fill-rule="evenodd" clip-rule="evenodd" d="M216.051 451.509C208.246 460.047 193.911 457.999 188.158 469.169C184.463 476.341 188.5 487.366 189.045 495.222C189.718 504.928 181.673 518.678 185.77 526.967C190.371 536.274 211.158 535.067 220.297 536.404C242.854 539.698 280.138 568.892 300.536 545.593C320.477 522.817 282.148 493.992 272.746 473.745C266.632 460.007 257.482 433.672 240.45 430.997C228.443 429.133 222.974 443.938 216.051 451.509ZM241.9 420.976C263.108 424.303 273.72 451.795 281.547 469.376C293.427 494.872 334.134 522.277 307.751 552.412C283.789 579.782 245.958 550.384 218.938 546.438C205.443 544.464 184.156 545.882 177.095 531.595C171.023 519.315 180.167 508.191 179.318 495.95C178.595 485.52 174.467 474.32 179.543 464.419C186.492 450.505 199.908 453.874 209.026 444.483C218.708 433.843 224.512 418.274 241.9 420.976Z" fill="#E68C3F"/>
        <path d="M467.717 540.921C491.216 511.296 543.514 517.399 508.267 476.755C500.817 467.972 503.109 449.212 493.939 441.173C483.192 431.347 471.298 439.386 460.409 434.324C449.52 428.816 438.057 418.246 424.731 425.69C411.405 433.283 409.972 452.935 408.683 478.84C407.537 497.449 391.203 528.564 399.942 545.685C412.553 572.185 445.366 568.612 467.717 540.921Z" fill="url(#paint10_linear_678_444)"/>
        <path fill-rule="evenodd" clip-rule="evenodd" d="M477.089 430.898C483.113 430.738 490.33 431.16 497.106 437.335C505.535 444.766 505.618 456.896 508.796 467.053C512.559 479.079 525.747 485.95 524.958 500.055C523.669 523.109 483.741 528.663 471.451 544.16C459.641 558.79 444.714 567.5 430.547 568.675C409.064 570.456 391.319 552.391 392.575 530.335C393.594 512.478 402.69 496.258 403.799 478.546C404.437 465.718 405.126 453.827 407.445 444.171C409.788 434.413 414.01 426.011 422.37 421.246C440.68 411.018 458.368 431.388 477.089 430.898ZM427.043 430.143C422.086 432.973 418.934 438.191 416.908 446.624C414.859 455.159 414.185 466.097 413.533 479.163C412.439 496.916 403.326 513.126 402.311 530.934C401.405 546.813 413.603 559.914 429.773 558.573C440.748 557.663 453.409 550.733 463.95 537.68C473.37 525.815 514.364 514.797 515.221 499.467C515.781 489.457 502.612 480.066 499.519 470.187C497.1 462.454 496.973 450.476 490.778 445.044C486.819 441.426 482.654 440.888 477.334 441.028C461.918 441.43 441.354 422.169 427.043 430.143Z" fill="#E68C3F"/>
        <path d="M457.529 501.318C493.922 445.489 466.841 445.935 457.671 441.617C448.501 437.152 438.902 428.367 428.155 434.472C417.408 440.724 416.835 456.802 416.548 477.945C416.12 493.13 403.94 518.588 411.248 532.731C420.132 549.257 441.624 525.286 457.529 501.318Z" fill="url(#paint11_linear_678_444)"/>
        <path d="M237.743 509.353C183.293 472.729 208.798 460.224 216.965 454.416C226.853 446.972 226.995 432.681 239.175 434.019C251.353 435.36 258.517 450.992 266.685 470.347C272.703 484.192 293.624 502.652 292.047 518.582C290.041 537.342 261.241 524.984 237.743 509.353Z" fill="url(#paint12_linear_678_444)"/>
        <path d="M475.739 436.105C471.441 443.846 453.961 456.052 442.354 452.778C430.462 449.652 425.018 432.233 427.452 419.132C429.603 404.244 442.354 403.5 458.403 410.944C475.453 418.983 480.755 425.832 475.739 436.105Z" fill="black"/>
        <path d="M463.987 431.788C461.264 437.147 449.801 445.632 441.777 443.399C433.754 441.166 429.742 429.108 431.03 420.026C432.176 409.753 440.773 409.158 451.665 414.22C463.414 419.877 467.139 424.641 463.987 431.788Z" fill="url(#paint13_linear_678_444)"/>
        <path d="M315.818 237.51C321.55 232 335.449 215.178 361.813 232.746C366.684 236.02 370.696 236.318 380.01 240.487C398.781 248.526 389.896 267.879 369.836 274.431C361.24 277.259 353.502 288.127 338.028 287.085C324.702 286.342 321.263 277.259 313.095 272.346C298.625 263.861 296.474 252.396 304.356 246.293C312.235 240.19 315.245 237.956 315.818 237.51Z" fill="url(#paint14_linear_678_444)"/>
        <path fill-rule="evenodd" clip-rule="evenodd" d="M306.103 248.726C303.106 251.047 302.153 254.131 303.143 257.543C305.178 264.552 319.847 274.193 325.465 278.909C328.658 281.591 332.312 283.717 338.216 284.047C350.859 284.898 357.881 275.17 368.959 271.526C376.243 269.146 391.658 260.055 386.553 249.636C382.195 240.743 367.517 240.194 360.226 235.294C347.679 226.936 338.544 226.995 332.036 229.34C324.905 231.91 312.561 243.723 306.103 248.726ZM330.118 223.596C338.583 220.546 349.589 220.984 363.4 230.187C372.479 236.29 386.29 235.701 391.766 246.877C398.742 261.111 381.839 273.692 370.715 277.325C358.804 281.247 352.15 291.071 337.853 290.115C330.439 289.698 325.683 286.908 321.788 283.638C313.705 276.853 300.048 270.404 296.927 259.643C295.194 253.676 297.721 247.634 302.605 243.85C310.5 237.736 321.168 226.822 330.118 223.596Z" fill="#E68C3F"/>
        <path fill-rule="evenodd" clip-rule="evenodd" d="M382.255 253.03C382.314 254.148 381.489 255.104 380.415 255.163C365.249 256.023 354.592 273.33 337.466 273.33C327.882 273.33 320.296 268.706 314.871 264.259C313.779 263.364 304.135 255.929 304.135 254.034C304.135 252.914 305.008 252.007 306.086 252.007C308.101 252.007 314.18 258.604 316.442 260.459C321.552 264.648 329.138 269.277 337.466 269.277C354.421 269.277 364.823 251.989 380.201 251.116C381.277 251.055 382.196 251.913 382.255 253.03Z" fill="#E68C3F"/>
        <path d="M324.718 236.016C327.584 233.336 336.609 226.041 348.503 233.485C351.082 234.973 353.661 236.611 357.386 238.844C364.981 243.46 361.256 250.158 352.084 254.328C347.93 256.115 341.052 259.984 335.894 259.687C330.163 259.092 326.293 255.22 322.568 252.689C315.546 247.927 315.977 243.906 319.271 240.78C321.708 238.398 324.431 236.165 324.718 236.016Z" fill="url(#paint15_linear_678_444)"/>
    </g>
    <defs>
        <linearGradient id="paint0_linear_678_444" x1="351.265" y1="137.947" x2="346.422" y2="203.568" gradientUnits="userSpaceOnUse">
            <stop stop-color="white" stop-opacity="0.8"/>
            <stop offset="1" stop-color="white" stop-opacity="0"/>
        </linearGradient>
        <linearGradient id="paint1_linear_678_444" x1="282.112" y1="495.952" x2="246.106" y2="377.817" gradientUnits="userSpaceOnUse">
            <stop stop-color="#FFEED7"/>
            <stop offset="1" stop-color="#BDBFC2"/>
        </linearGradient>
        <linearGradient id="paint2_linear_678_444" x1="282.113" y1="495.952" x2="246.107" y2="377.816" gradientUnits="userSpaceOnUse">
            <stop stop-color="#FFEED7"/>
            <stop offset="1" stop-color="#BDBFC2"/>
        </linearGradient>
        <linearGradient id="paint3_linear_678_444" x1="364.614" y1="211.213" x2="362.573" y2="226.498" gradientUnits="userSpaceOnUse">
            <stop stop-color="white" stop-opacity="0.65"/>
            <stop offset="1" stop-color="white" stop-opacity="0"/>
        </linearGradient>
        <linearGradient id="paint4_linear_678_444" x1="315.745" y1="214.001" x2="317.942" y2="226.369" gradientUnits="userSpaceOnUse">
            <stop stop-color="white" stop-opacity="0.65"/>
            <stop offset="1" stop-color="white" stop-opacity="0"/>
        </linearGradient>
        <linearGradient id="paint5_linear_678_444" x1="344.779" y1="341.92" x2="345.145" y2="429.346" gradientUnits="userSpaceOnUse">
            <stop stop-color="white" stop-opacity="0.8"/>
            <stop offset="1" stop-color="white" stop-opacity="0"/>
        </linearGradient>
        <linearGradient id="paint6_linear_678_444" x1="346.728" y1="287.103" x2="347.131" y2="321.864" gradientUnits="userSpaceOnUse">
            <stop stop-color="white" stop-opacity="0.65"/>
            <stop offset="1" stop-color="white" stop-opacity="0"/>
        </linearGradient>
        <linearGradient id="paint7_linear_678_444" x1="256.375" y1="308.558" x2="256.375" y2="436.126" gradientUnits="userSpaceOnUse">
            <stop stop-color="white" stop-opacity="0.65"/>
            <stop offset="1" stop-color="white" stop-opacity="0"/>
        </linearGradient>
        <linearGradient id="paint8_linear_678_444" x1="460.096" y1="296.098" x2="460.048" y2="411.364" gradientUnits="userSpaceOnUse">
            <stop stop-color="white" stop-opacity="0.65"/>
            <stop offset="1" stop-color="white" stop-opacity="0"/>
        </linearGradient>
        <linearGradient id="paint9_linear_678_444" x1="250.001" y1="490.818" x2="230.462" y2="556.093" gradientUnits="userSpaceOnUse">
            <stop stop-color="#FFA63F"/>
            <stop offset="1" stop-color="#FFFF00"/>
        </linearGradient>
        <linearGradient id="paint10_linear_678_444" x1="434.918" y1="470.969" x2="487.059" y2="542.065" gradientUnits="userSpaceOnUse">
            <stop stop-color="#FFA63F"/>
            <stop offset="1" stop-color="#FFFF00"/>
        </linearGradient>
        <linearGradient id="paint11_linear_678_444" x1="448.871" y1="414.166" x2="430.638" y2="500.073" gradientUnits="userSpaceOnUse">
            <stop stop-color="white" stop-opacity="0.65"/>
            <stop offset="1" stop-color="white" stop-opacity="0"/>
        </linearGradient>
        <linearGradient id="paint12_linear_678_444" x1="246.016" y1="435.404" x2="249.632" y2="532.085" gradientUnits="userSpaceOnUse">
            <stop stop-color="white" stop-opacity="0.65"/>
            <stop offset="1" stop-color="white" stop-opacity="0"/>
        </linearGradient>
        <linearGradient id="paint13_linear_678_444" x1="445.715" y1="412.597" x2="449.943" y2="441.485" gradientUnits="userSpaceOnUse">
            <stop stop-color="white" stop-opacity="0.65"/>
            <stop offset="1" stop-color="white" stop-opacity="0"/>
        </linearGradient>
        <linearGradient id="paint14_linear_678_444" x1="344.846" y1="235.9" x2="345.199" y2="286.777" gradientUnits="userSpaceOnUse">
            <stop stop-color="#FFA63F"/>
            <stop offset="1" stop-color="#FFFF00"/>
        </linearGradient>
        <linearGradient id="paint15_linear_678_444" x1="339.296" y1="231.083" x2="339.199" y2="257.985" gradientUnits="userSpaceOnUse">
            <stop stop-color="white" stop-opacity="0.65"/>
            <stop offset="1" stop-color="white" stop-opacity="0"/>
        </linearGradient>
    </defs>
</svg>